<?xml version="1.0" standalone="no"?>
<!DOCTYPE svg PUBLIC "-//W3C//DTD SVG 20010904//EN"
 "http://www.w3.org/TR/2001/REC-SVG-20010904/DTD/svg10.dtd">
<svg version="1.0" xmlns="http://www.w3.org/2000/svg"
 width="1.5rem" height="1.5rem" viewBox="0 0 400.000000 400.000000"
 preserveAspectRatio="xMidYMid meet">

<g transform="translate(0.000000,400.000000) scale(0.100000,-0.100000)"
fill="#1b4393" stroke="none">
<path d="M3289 3306 c-3 -3 -528 -6 -1166 -6 -1119 0 -1162 -1 -1199 -19 -70
-35 -134 -87 -165 -135 -61 -97 -59 -50 -59 -1309 0 -663 4 -1146 9 -1143 5 3
530 6 1167 6 l1159 0 46 23 c69 33 131 85 161 134 60 96 58 53 56 1308 -2 631
-6 1144 -9 1141z m-601 -1188 l-3 -692 -30 -7 c-16 -4 -70 -14 -120 -23 -238
-42 -674 -120 -798 -142 -75 -14 -152 -26 -170 -28 -17 -2 -39 -6 -47 -9 -30
-12 -191 -38 -200 -32 -6 4 -10 261 -10 691 l0 684 23 10 c12 5 126 28 252 51
210 37 670 118 755 133 19 4 91 17 160 30 69 13 140 24 158 25 l32 1 -2 -692z"/>
</g>
</svg>
