<?xml version="1.0" standalone="no"?>
<!DOCTYPE svg PUBLIC "-//W3C//DTD SVG 20010904//EN"
 "http://www.w3.org/TR/2001/REC-SVG-20010904/DTD/svg10.dtd">
<svg version="1.0" xmlns="http://www.w3.org/2000/svg"
 width="500.000000pt" height="500.000000pt" viewBox="0 0 500.000000 500.000000"
 preserveAspectRatio="xMidYMid meet">

<g transform="translate(0.000000,500.000000) scale(0.100000,-0.100000)"
fill="#0079FE" stroke="none">
<path d="M2438 3903 c-133 -143 -229 -358 -274 -613 -27 -157 -29 -227 -9
-365 20 -138 20 -136 -31 -189 -57 -60 -101 -131 -118 -192 -30 -106 -30 -264
0 -264 8 0 27 29 43 63 34 73 118 157 177 175 35 11 37 10 78 -35 36 -39 42
-54 54 -121 8 -50 20 -84 33 -99 12 -12 28 -49 35 -83 8 -33 26 -86 40 -118
25 -56 26 -57 42 -36 17 20 51 115 72 202 6 23 15 40 20 37 14 -9 26 29 35
105 7 57 12 69 48 107 55 58 87 57 164 -6 38 -31 74 -83 102 -146 15 -34 25
-46 38 -43 15 3 18 16 21 85 5 148 -43 277 -138 367 -45 42 -50 52 -45 79 30
184 28 371 -6 538 -23 113 -45 179 -96 286 -21 43 -38 80 -38 83 -1 14 -78
130 -86 130 -5 0 -9 4 -9 10 0 16 -76 90 -92 90 -9 0 -35 -21 -60 -47z"/>
<path d="M85 2254 c-8 -9 -15 -19 -15 -24 0 -15 141 -139 257 -226 390 -293
808 -507 1268 -649 83 -26 170 -50 195 -55 25 -5 88 -18 140 -29 370 -80 854
-104 1230 -61 492 56 938 184 1336 383 314 157 474 262 474 313 0 65 -74 71
-210 15 -423 -173 -861 -281 -1430 -352 -187 -23 -580 -30 -862 -14 -236 13
-641 74 -919 139 -429 99 -955 301 -1282 490 -138 79 -163 89 -182 70z"/>
</g>
</svg>
